<svg width="500" height="500" viewBox="0 0 500 500" xmlns="http://www.w3.org/2000/svg">
  <line x1="15.0" y1="150.0" x2="485.0" y2="150.0" stroke="#374664" stroke-width="25" stroke-linecap="round" />
  <line x1="15.0" y1="350.0" x2="485.0" y2="350.0" stroke="#374664" stroke-width="25" stroke-linecap="round" />
  <polyline points="15,250.00 16,254.01 17,258.02 18,262.02 19,266.01 20,269.99 21,273.96 22,277.91 23,281.84 24,285.75 25,289.63 26,293.48 27,297.31 28,301.09 29,304.85 30,308.56 31,312.23 32,315.86 33,319.44 34,322.96 35,326.44 36,329.87 37,333.23 38,336.54 39,339.78 40,342.96 41,346.08 42,349.12 43,352.10 44,355.00 45,357.82 46,360.57 47,363.24 48,365.83 49,368.34 50,370.76 51,373.10 52,375.34 53,377.50 54,379.57 55,381.54 56,383.42 57,385.21 58,386.90 59,388.49 60,389.98 61,391.37 62,392.66 63,393.85 64,394.93 65,395.91 66,396.79 67,397.56 68,398.23 69,398.79 70,399.25 71,399.59 72,399.84 73,399.97 74,400.00 75,399.92 76,399.73 77,399.43 78,399.03 79,398.52 80,397.91 81,397.19 82,396.37 83,395.44 84,394.40 85,393.27 86,392.03 87,390.69 88,389.24 89,387.70 90,386.06 91,384.33 92,382.49 93,380.57 94,378.55 95,376.43 96,374.23 97,371.94 98,369.56 99,367.10 100,364.55 101,361.92 102,359.21 103,356.42 104,353.56 105,350.62 106,347.61 107,344.53 108,341.38 109,338.17 110,334.89 111,331.56 112,328.16 113,324.71 114,321.21 115,317.65 116,314.05 117,310.40 118,306.71 119,302.97 120,299.20 121,295.40 122,291.56 123,287.69 124,283.80 125,279.88 126,275.94 127,271.98 128,268.00 129,264.02 130,260.02 131,256.01 132,252.01 133,247.99 134,243.99 135,239.98 136,235.98 137,232.00 138,228.02 139,224.06 140,220.12 141,216.20 142,212.31 143,208.44 144,204.60 145,200.80 146,197.03 147,193.29 148,189.60 149,185.95 150,182.35 151,178.79 152,175.29 153,171.84 154,168.44 155,165.11 156,161.83 157,158.62 158,155.47 159,152.39 160,149.38 161,146.44 162,143.58 163,140.79 164,138.08 165,135.45 166,132.90 167,130.44 168,128.06 169,125.77 170,123.57 171,121.45 172,119.43 173,117.51 174,115.67 175,113.94 176,112.30 177,110.76 178,109.31 179,107.97 180,106.73 181,105.60 182,104.56 183,103.63 184,102.81 185,102.09 186,101.48 187,100.97 188,100.57 189,100.27 190,100.08 191,100.00 192,100.03 193,100.16 194,100.41 195,100.75 196,101.21 197,101.77 198,102.44 199,103.21 200,104.09 201,105.07 202,106.15 203,107.34 204,108.63 205,110.02 206,111.51 207,113.10 208,114.79 209,116.58 210,118.46 211,120.43 212,122.50 213,124.66 214,126.90 215,129.24 216,131.66 217,134.17 218,136.76 219,139.43 220,142.18 221,145.00 222,147.90 223,150.88 224,153.92 225,157.04 226,160.22 227,163.46 228,166.77 229,170.13 230,173.56 231,177.04 232,180.56 233,184.14 234,187.77 235,191.44 236,195.15 237,198.91 238,202.69 239,206.52 240,210.37 241,214.25 242,218.16 243,222.09 244,226.04 245,230.01 246,233.99 247,237.98 248,241.98 249,245.99 250,250.00 251,254.01 252,258.02 253,262.02 254,266.01 255,269.99 256,273.96 257,277.91 258,281.84 259,285.75 260,289.63 261,293.48 262,297.31 263,301.09 264,304.85 265,308.56 266,312.23 267,315.86 268,319.44 269,322.96 270,326.44 271,329.87 272,333.23 273,336.54 274,339.78 275,342.96 276,346.08 277,349.12 278,352.10 279,355.00 280,357.82 281,360.57 282,363.24 283,365.83 284,368.34 285,370.76 286,373.10 287,375.34 288,377.50 289,379.57 290,381.54 291,383.42 292,385.21 293,386.90 294,388.49 295,389.98 296,391.37 297,392.66 298,393.85 299,394.93 300,395.91 301,396.79 302,397.56 303,398.23 304,398.79 305,399.25 306,399.59 307,399.84 308,399.97 309,400.00 310,399.92 311,399.73 312,399.43 313,399.03 314,398.52 315,397.91 316,397.19 317,396.37 318,395.44 319,394.40 320,393.27 321,392.03 322,390.69 323,389.24 324,387.70 325,386.06 326,384.33 327,382.49 328,380.57 329,378.55 330,376.43 331,374.23 332,371.94 333,369.56 334,367.10 335,364.55 336,361.92 337,359.21 338,356.42 339,353.56 340,350.62 341,347.61 342,344.53 343,341.38 344,338.17 345,334.89 346,331.56 347,328.16 348,324.71 349,321.21 350,317.65 351,314.05 352,310.40 353,306.71 354,302.97 355,299.20 356,295.40 357,291.56 358,287.69 359,283.80 360,279.88 361,275.94 362,271.98 363,268.00 364,264.02 365,260.02 366,256.01 367,252.01 368,247.99 369,243.99 370,239.98 371,235.98 372,232.00 373,228.02 374,224.06 375,220.12 376,216.20 377,212.31 378,208.44 379,204.60 380,200.80 381,197.03 382,193.29 383,189.60 384,185.95 385,182.35 386,178.79 387,175.29 388,171.84 389,168.44 390,165.11 391,161.83 392,158.62 393,155.47 394,152.39 395,149.38 396,146.44 397,143.58 398,140.79 399,138.08 400,135.45 401,132.90 402,130.44 403,128.06 404,125.77 405,123.57 406,121.45 407,119.43 408,117.51 409,115.67 410,113.94 411,112.30 412,110.76 413,109.31 414,107.97 415,106.73 416,105.60 417,104.56 418,103.63 419,102.81 420,102.09 421,101.48 422,100.97 423,100.57 424,100.27 425,100.08 426,100.00 427,100.03 428,100.16 429,100.41 430,100.75 431,101.21 432,101.77 433,102.44 434,103.21 435,104.09 436,105.07 437,106.15 438,107.34 439,108.63 440,110.02 441,111.51 442,113.10 443,114.79 444,116.58 445,118.46 446,120.43 447,122.50 448,124.66 449,126.90 450,129.24 451,131.66 452,134.17 453,136.76 454,139.43 455,142.18 456,145.00 457,147.90 458,150.88 459,153.92 460,157.04 461,160.22 462,163.46 463,166.77 464,170.13 465,173.56 466,177.04 467,180.56 468,184.14 469,187.77 470,191.44 471,195.15 472,198.91 473,202.69 474,206.52 475,210.37 476,214.25 477,218.16 478,222.09 479,226.04 480,230.01 481,233.99 482,237.98 483,241.98 484,245.99 485,250.00" fill="none" stroke="#374664" stroke-width="25" stroke-linecap="round" stroke-linejoin="round" />
</svg>