<svg width="500" height="500" viewBox="0 0 500 500" xmlns="http://www.w3.org/2000/svg">
  <line x1="15.0" y1="150.0" x2="485.0" y2="150.0" stroke="#374664" stroke-width="25" stroke-linecap="round" />
  <line x1="15.0" y1="350.0" x2="485.0" y2="350.0" stroke="#374664" stroke-width="25" stroke-linecap="round" />
  <polyline points="15,250.00 16,250.67 17,251.34 18,252.00 19,252.67 20,253.33 21,253.99 22,254.65 23,255.31 24,255.96 25,256.60 26,257.25 27,257.88 28,258.52 29,259.14 30,259.76 31,260.37 32,260.98 33,261.57 34,262.16 35,262.74 36,263.31 37,263.87 38,264.42 39,264.96 40,265.49 41,266.01 42,266.52 43,267.02 44,267.50 45,267.97 46,268.43 47,268.87 48,269.31 49,269.72 50,270.13 51,270.52 52,270.89 53,271.25 54,271.59 55,271.92 56,272.24 57,272.53 58,272.82 59,273.08 60,273.33 61,273.56 62,273.78 63,273.97 64,274.16 65,274.32 66,274.47 67,274.59 68,274.71 69,274.80 70,274.87 71,274.93 72,274.97 73,274.99 74,275.00 75,274.99 76,274.95 77,274.91 78,274.84 79,274.75 80,274.65 81,274.53 82,274.39 83,274.24 84,274.07 85,273.88 86,273.67 87,273.45 88,273.21 89,272.95 90,272.68 91,272.39 92,272.08 93,271.76 94,271.42 95,271.07 96,270.71 97,270.32 98,269.93 99,269.52 100,269.09 101,268.65 102,268.20 103,267.74 104,267.26 105,266.77 106,266.27 107,265.75 108,265.23 109,264.69 110,264.15 111,263.59 112,263.03 113,262.45 114,261.87 115,261.28 116,260.67 117,260.07 118,259.45 119,258.83 120,258.20 121,257.57 122,256.93 123,256.28 124,255.63 125,254.98 126,254.32 127,253.66 128,253.00 129,252.34 130,251.67 131,251.00 132,250.33 133,249.67 134,249.00 135,248.33 136,247.66 137,247.00 138,246.34 139,245.68 140,245.02 141,244.37 142,243.72 143,243.07 144,242.43 145,241.80 146,241.17 147,240.55 148,239.93 149,239.33 150,238.72 151,238.13 152,237.55 153,236.97 154,236.41 155,235.85 156,235.31 157,234.77 158,234.25 159,233.73 160,233.23 161,232.74 162,232.26 163,231.80 164,231.35 165,230.91 166,230.48 167,230.07 168,229.68 169,229.29 170,228.93 171,228.58 172,228.24 173,227.92 174,227.61 175,227.32 176,227.05 177,226.79 178,226.55 179,226.33 180,226.12 181,225.93 182,225.76 183,225.61 184,225.47 185,225.35 186,225.25 187,225.16 188,225.09 189,225.05 190,225.01 191,225.00 192,225.01 193,225.03 194,225.07 195,225.13 196,225.20 197,225.29 198,225.41 199,225.53 200,225.68 201,225.84 202,226.03 203,226.22 204,226.44 205,226.67 206,226.92 207,227.18 208,227.47 209,227.76 210,228.08 211,228.41 212,228.75 213,229.11 214,229.48 215,229.87 216,230.28 217,230.69 218,231.13 219,231.57 220,232.03 221,232.50 222,232.98 223,233.48 224,233.99 225,234.51 226,235.04 227,235.58 228,236.13 229,236.69 230,237.26 231,237.84 232,238.43 233,239.02 234,239.63 235,240.24 236,240.86 237,241.48 238,242.12 239,242.75 240,243.40 241,244.04 242,244.69 243,245.35 244,246.01 245,246.67 246,247.33 247,248.00 248,248.66 249,249.33 250,250.00 251,250.67 252,251.34 253,252.00 254,252.67 255,253.33 256,253.99 257,254.65 258,255.31 259,255.96 260,256.60 261,257.25 262,257.88 263,258.52 264,259.14 265,259.76 266,260.37 267,260.98 268,261.57 269,262.16 270,262.74 271,263.31 272,263.87 273,264.42 274,264.96 275,265.49 276,266.01 277,266.52 278,267.02 279,267.50 280,267.97 281,268.43 282,268.87 283,269.31 284,269.72 285,270.13 286,270.52 287,270.89 288,271.25 289,271.59 290,271.92 291,272.24 292,272.53 293,272.82 294,273.08 295,273.33 296,273.56 297,273.78 298,273.97 299,274.16 300,274.32 301,274.47 302,274.59 303,274.71 304,274.80 305,274.87 306,274.93 307,274.97 308,274.99 309,275.00 310,274.99 311,274.95 312,274.91 313,274.84 314,274.75 315,274.65 316,274.53 317,274.39 318,274.24 319,274.07 320,273.88 321,273.67 322,273.45 323,273.21 324,272.95 325,272.68 326,272.39 327,272.08 328,271.76 329,271.42 330,271.07 331,270.71 332,270.32 333,269.93 334,269.52 335,269.09 336,268.65 337,268.20 338,267.74 339,267.26 340,266.77 341,266.27 342,265.75 343,265.23 344,264.69 345,264.15 346,263.59 347,263.03 348,262.45 349,261.87 350,261.28 351,260.67 352,260.07 353,259.45 354,258.83 355,258.20 356,257.57 357,256.93 358,256.28 359,255.63 360,254.98 361,254.32 362,253.66 363,253.00 364,252.34 365,251.67 366,251.00 367,250.33 368,249.67 369,249.00 370,248.33 371,247.66 372,247.00 373,246.34 374,245.68 375,245.02 376,244.37 377,243.72 378,243.07 379,242.43 380,241.80 381,241.17 382,240.55 383,239.93 384,239.33 385,238.72 386,238.13 387,237.55 388,236.97 389,236.41 390,235.85 391,235.31 392,234.77 393,234.25 394,233.73 395,233.23 396,232.74 397,232.26 398,231.80 399,231.35 400,230.91 401,230.48 402,230.07 403,229.68 404,229.29 405,228.93 406,228.58 407,228.24 408,227.92 409,227.61 410,227.32 411,227.05 412,226.79 413,226.55 414,226.33 415,226.12 416,225.93 417,225.76 418,225.61 419,225.47 420,225.35 421,225.25 422,225.16 423,225.09 424,225.05 425,225.01 426,225.00 427,225.01 428,225.03 429,225.07 430,225.13 431,225.20 432,225.29 433,225.41 434,225.53 435,225.68 436,225.84 437,226.03 438,226.22 439,226.44 440,226.67 441,226.92 442,227.18 443,227.47 444,227.76 445,228.08 446,228.41 447,228.75 448,229.11 449,229.48 450,229.87 451,230.28 452,230.69 453,231.13 454,231.57 455,232.03 456,232.50 457,232.98 458,233.48 459,233.99 460,234.51 461,235.04 462,235.58 463,236.13 464,236.69 465,237.26 466,237.84 467,238.43 468,239.02 469,239.63 470,240.24 471,240.86 472,241.48 473,242.12 474,242.75 475,243.40 476,244.04 477,244.69 478,245.35 479,246.01 480,246.67 481,247.33 482,248.00 483,248.66 484,249.33 485,250.00" fill="none" stroke="#374664" stroke-width="25" stroke-linecap="round" stroke-linejoin="round" />
</svg>