<svg width="500" height="500" viewBox="0 0 500 500" xmlns="http://www.w3.org/2000/svg">
  <line x1="150.0" y1="15.0" x2="150.0" y2="485.0" stroke="#8899bb" stroke-width="25" stroke-linecap="round" />
  <line x1="350.0" y1="15.0" x2="350.0" y2="485.0" stroke="#8899bb" stroke-width="25" stroke-linecap="round" />
  <polyline points="250.00,15 254.01,16 258.02,17 262.02,18 266.01,19 269.99,20 273.96,21 277.91,22 281.84,23 285.75,24 289.63,25 293.48,26 297.31,27 301.09,28 304.85,29 308.56,30 312.23,31 315.86,32 319.44,33 322.96,34 326.44,35 329.87,36 333.23,37 336.54,38 339.78,39 342.96,40 346.08,41 349.12,42 352.10,43 355.00,44 357.82,45 360.57,46 363.24,47 365.83,48 368.34,49 370.76,50 373.10,51 375.34,52 377.50,53 379.57,54 381.54,55 383.42,56 385.21,57 386.90,58 388.49,59 389.98,60 391.37,61 392.66,62 393.85,63 394.93,64 395.91,65 396.79,66 397.56,67 398.23,68 398.79,69 399.25,70 399.59,71 399.84,72 399.97,73 400.00,74 399.92,75 399.73,76 399.43,77 399.03,78 398.52,79 397.91,80 397.19,81 396.37,82 395.44,83 394.40,84 393.27,85 392.03,86 390.69,87 389.24,88 387.70,89 386.06,90 384.33,91 382.49,92 380.57,93 378.55,94 376.43,95 374.23,96 371.94,97 369.56,98 367.10,99 364.55,100 361.92,101 359.21,102 356.42,103 353.56,104 350.62,105 347.61,106 344.53,107 341.38,108 338.17,109 334.89,110 331.56,111 328.16,112 324.71,113 321.21,114 317.65,115 314.05,116 310.40,117 306.71,118 302.97,119 299.20,120 295.40,121 291.56,122 287.69,123 283.80,124 279.88,125 275.94,126 271.98,127 268.00,128 264.02,129 260.02,130 256.01,131 252.01,132 247.99,133 243.99,134 239.98,135 235.98,136 232.00,137 228.02,138 224.06,139 220.12,140 216.20,141 212.31,142 208.44,143 204.60,144 200.80,145 197.03,146 193.29,147 189.60,148 185.95,149 182.35,150 178.79,151 175.29,152 171.84,153 168.44,154 165.11,155 161.83,156 158.62,157 155.47,158 152.39,159 149.38,160 146.44,161 143.58,162 140.79,163 138.08,164 135.45,165 132.90,166 130.44,167 128.06,168 125.77,169 123.57,170 121.45,171 119.43,172 117.51,173 115.67,174 113.94,175 112.30,176 110.76,177 109.31,178 107.97,179 106.73,180 105.60,181 104.56,182 103.63,183 102.81,184 102.09,185 101.48,186 100.97,187 100.57,188 100.27,189 100.08,190 100.00,191 100.03,192 100.16,193 100.41,194 100.75,195 101.21,196 101.77,197 102.44,198 103.21,199 104.09,200 105.07,201 106.15,202 107.34,203 108.63,204 110.02,205 111.51,206 113.10,207 114.79,208 116.58,209 118.46,210 120.43,211 122.50,212 124.66,213 126.90,214 129.24,215 131.66,216 134.17,217 136.76,218 139.43,219 142.18,220 145.00,221 147.90,222 150.88,223 153.92,224 157.04,225 160.22,226 163.46,227 166.77,228 170.13,229 173.56,230 177.04,231 180.56,232 184.14,233 187.77,234 191.44,235 195.15,236 198.91,237 202.69,238 206.52,239 210.37,240 214.25,241 218.16,242 222.09,243 226.04,244 230.01,245 233.99,246 237.98,247 241.98,248 245.99,249 250.00,250 254.01,251 258.02,252 262.02,253 266.01,254 269.99,255 273.96,256 277.91,257 281.84,258 285.75,259 289.63,260 293.48,261 297.31,262 301.09,263 304.85,264 308.56,265 312.23,266 315.86,267 319.44,268 322.96,269 326.44,270 329.87,271 333.23,272 336.54,273 339.78,274 342.96,275 346.08,276 349.12,277 352.10,278 355.00,279 357.82,280 360.57,281 363.24,282 365.83,283 368.34,284 370.76,285 373.10,286 375.34,287 377.50,288 379.57,289 381.54,290 383.42,291 385.21,292 386.90,293 388.49,294 389.98,295 391.37,296 392.66,297 393.85,298 394.93,299 395.91,300 396.79,301 397.56,302 398.23,303 398.79,304 399.25,305 399.59,306 399.84,307 399.97,308 400.00,309 399.92,310 399.73,311 399.43,312 399.03,313 398.52,314 397.91,315 397.19,316 396.37,317 395.44,318 394.40,319 393.27,320 392.03,321 390.69,322 389.24,323 387.70,324 386.06,325 384.33,326 382.49,327 380.57,328 378.55,329 376.43,330 374.23,331 371.94,332 369.56,333 367.10,334 364.55,335 361.92,336 359.21,337 356.42,338 353.56,339 350.62,340 347.61,341 344.53,342 341.38,343 338.17,344 334.89,345 331.56,346 328.16,347 324.71,348 321.21,349 317.65,350 314.05,351 310.40,352 306.71,353 302.97,354 299.20,355 295.40,356 291.56,357 287.69,358 283.80,359 279.88,360 275.94,361 271.98,362 268.00,363 264.02,364 260.02,365 256.01,366 252.01,367 247.99,368 243.99,369 239.98,370 235.98,371 232.00,372 228.02,373 224.06,374 220.12,375 216.20,376 212.31,377 208.44,378 204.60,379 200.80,380 197.03,381 193.29,382 189.60,383 185.95,384 182.35,385 178.79,386 175.29,387 171.84,388 168.44,389 165.11,390 161.83,391 158.62,392 155.47,393 152.39,394 149.38,395 146.44,396 143.58,397 140.79,398 138.08,399 135.45,400 132.90,401 130.44,402 128.06,403 125.77,404 123.57,405 121.45,406 119.43,407 117.51,408 115.67,409 113.94,410 112.30,411 110.76,412 109.31,413 107.97,414 106.73,415 105.60,416 104.56,417 103.63,418 102.81,419 102.09,420 101.48,421 100.97,422 100.57,423 100.27,424 100.08,425 100.00,426 100.03,427 100.16,428 100.41,429 100.75,430 101.21,431 101.77,432 102.44,433 103.21,434 104.09,435 105.07,436 106.15,437 107.34,438 108.63,439 110.02,440 111.51,441 113.10,442 114.79,443 116.58,444 118.46,445 120.43,446 122.50,447 124.66,448 126.90,449 129.24,450 131.66,451 134.17,452 136.76,453 139.43,454 142.18,455 145.00,456 147.90,457 150.88,458 153.92,459 157.04,460 160.22,461 163.46,462 166.77,463 170.13,464 173.56,465 177.04,466 180.56,467 184.14,468 187.77,469 191.44,470 195.15,471 198.91,472 202.69,473 206.52,474 210.37,475 214.25,476 218.16,477 222.09,478 226.04,479 230.01,480 233.99,481 237.98,482 241.98,483 245.99,484 250.00,485" fill="none" stroke="#8899bb" stroke-width="25" stroke-linecap="round" stroke-linejoin="round" />
</svg>