<svg width="500" height="500" viewBox="0 0 500 500" xmlns="http://www.w3.org/2000/svg">
  <line x1="150.0" y1="15.0" x2="150.0" y2="485.0" stroke="#8899bb" stroke-width="25" stroke-linecap="round" />
  <line x1="350.0" y1="15.0" x2="350.0" y2="485.0" stroke="#8899bb" stroke-width="25" stroke-linecap="round" />
  <polyline points="250.00,15 250.67,16 251.34,17 252.00,18 252.67,19 253.33,20 253.99,21 254.65,22 255.31,23 255.96,24 256.60,25 257.25,26 257.88,27 258.52,28 259.14,29 259.76,30 260.37,31 260.98,32 261.57,33 262.16,34 262.74,35 263.31,36 263.87,37 264.42,38 264.96,39 265.49,40 266.01,41 266.52,42 267.02,43 267.50,44 267.97,45 268.43,46 268.87,47 269.31,48 269.72,49 270.13,50 270.52,51 270.89,52 271.25,53 271.59,54 271.92,55 272.24,56 272.53,57 272.82,58 273.08,59 273.33,60 273.56,61 273.78,62 273.97,63 274.16,64 274.32,65 274.47,66 274.59,67 274.71,68 274.80,69 274.87,70 274.93,71 274.97,72 274.99,73 275.00,74 274.99,75 274.95,76 274.91,77 274.84,78 274.75,79 274.65,80 274.53,81 274.39,82 274.24,83 274.07,84 273.88,85 273.67,86 273.45,87 273.21,88 272.95,89 272.68,90 272.39,91 272.08,92 271.76,93 271.42,94 271.07,95 270.71,96 270.32,97 269.93,98 269.52,99 269.09,100 268.65,101 268.20,102 267.74,103 267.26,104 266.77,105 266.27,106 265.75,107 265.23,108 264.69,109 264.15,110 263.59,111 263.03,112 262.45,113 261.87,114 261.28,115 260.67,116 260.07,117 259.45,118 258.83,119 258.20,120 257.57,121 256.93,122 256.28,123 255.63,124 254.98,125 254.32,126 253.66,127 253.00,128 252.34,129 251.67,130 251.00,131 250.33,132 249.67,133 249.00,134 248.33,135 247.66,136 247.00,137 246.34,138 245.68,139 245.02,140 244.37,141 243.72,142 243.07,143 242.43,144 241.80,145 241.17,146 240.55,147 239.93,148 239.33,149 238.72,150 238.13,151 237.55,152 236.97,153 236.41,154 235.85,155 235.31,156 234.77,157 234.25,158 233.73,159 233.23,160 232.74,161 232.26,162 231.80,163 231.35,164 230.91,165 230.48,166 230.07,167 229.68,168 229.29,169 228.93,170 228.58,171 228.24,172 227.92,173 227.61,174 227.32,175 227.05,176 226.79,177 226.55,178 226.33,179 226.12,180 225.93,181 225.76,182 225.61,183 225.47,184 225.35,185 225.25,186 225.16,187 225.09,188 225.05,189 225.01,190 225.00,191 225.01,192 225.03,193 225.07,194 225.13,195 225.20,196 225.29,197 225.41,198 225.53,199 225.68,200 225.84,201 226.03,202 226.22,203 226.44,204 226.67,205 226.92,206 227.18,207 227.47,208 227.76,209 228.08,210 228.41,211 228.75,212 229.11,213 229.48,214 229.87,215 230.28,216 230.69,217 231.13,218 231.57,219 232.03,220 232.50,221 232.98,222 233.48,223 233.99,224 234.51,225 235.04,226 235.58,227 236.13,228 236.69,229 237.26,230 237.84,231 238.43,232 239.02,233 239.63,234 240.24,235 240.86,236 241.48,237 242.12,238 242.75,239 243.40,240 244.04,241 244.69,242 245.35,243 246.01,244 246.67,245 247.33,246 248.00,247 248.66,248 249.33,249 250.00,250 250.67,251 251.34,252 252.00,253 252.67,254 253.33,255 253.99,256 254.65,257 255.31,258 255.96,259 256.60,260 257.25,261 257.88,262 258.52,263 259.14,264 259.76,265 260.37,266 260.98,267 261.57,268 262.16,269 262.74,270 263.31,271 263.87,272 264.42,273 264.96,274 265.49,275 266.01,276 266.52,277 267.02,278 267.50,279 267.97,280 268.43,281 268.87,282 269.31,283 269.72,284 270.13,285 270.52,286 270.89,287 271.25,288 271.59,289 271.92,290 272.24,291 272.53,292 272.82,293 273.08,294 273.33,295 273.56,296 273.78,297 273.97,298 274.16,299 274.32,300 274.47,301 274.59,302 274.71,303 274.80,304 274.87,305 274.93,306 274.97,307 274.99,308 275.00,309 274.99,310 274.95,311 274.91,312 274.84,313 274.75,314 274.65,315 274.53,316 274.39,317 274.24,318 274.07,319 273.88,320 273.67,321 273.45,322 273.21,323 272.95,324 272.68,325 272.39,326 272.08,327 271.76,328 271.42,329 271.07,330 270.71,331 270.32,332 269.93,333 269.52,334 269.09,335 268.65,336 268.20,337 267.74,338 267.26,339 266.77,340 266.27,341 265.75,342 265.23,343 264.69,344 264.15,345 263.59,346 263.03,347 262.45,348 261.87,349 261.28,350 260.67,351 260.07,352 259.45,353 258.83,354 258.20,355 257.57,356 256.93,357 256.28,358 255.63,359 254.98,360 254.32,361 253.66,362 253.00,363 252.34,364 251.67,365 251.00,366 250.33,367 249.67,368 249.00,369 248.33,370 247.66,371 247.00,372 246.34,373 245.68,374 245.02,375 244.37,376 243.72,377 243.07,378 242.43,379 241.80,380 241.17,381 240.55,382 239.93,383 239.33,384 238.72,385 238.13,386 237.55,387 236.97,388 236.41,389 235.85,390 235.31,391 234.77,392 234.25,393 233.73,394 233.23,395 232.74,396 232.26,397 231.80,398 231.35,399 230.91,400 230.48,401 230.07,402 229.68,403 229.29,404 228.93,405 228.58,406 228.24,407 227.92,408 227.61,409 227.32,410 227.05,411 226.79,412 226.55,413 226.33,414 226.12,415 225.93,416 225.76,417 225.61,418 225.47,419 225.35,420 225.25,421 225.16,422 225.09,423 225.05,424 225.01,425 225.00,426 225.01,427 225.03,428 225.07,429 225.13,430 225.20,431 225.29,432 225.41,433 225.53,434 225.68,435 225.84,436 226.03,437 226.22,438 226.44,439 226.67,440 226.92,441 227.18,442 227.47,443 227.76,444 228.08,445 228.41,446 228.75,447 229.11,448 229.48,449 229.87,450 230.28,451 230.69,452 231.13,453 231.57,454 232.03,455 232.50,456 232.98,457 233.48,458 233.99,459 234.51,460 235.04,461 235.58,462 236.13,463 236.69,464 237.26,465 237.84,466 238.43,467 239.02,468 239.63,469 240.24,470 240.86,471 241.48,472 242.12,473 242.75,474 243.40,475 244.04,476 244.69,477 245.35,478 246.01,479 246.67,480 247.33,481 248.00,482 248.66,483 249.33,484 250.00,485" fill="none" stroke="#8899bb" stroke-width="25" stroke-linecap="round" stroke-linejoin="round" />
</svg>